<svg xmlns="http://www.w3.org/2000/svg" xmlns:xlink="http://www.w3.org/1999/xlink" width="1920" zoomAndPan="magnify" viewBox="0 0 1440 1439.999935" height="1920" preserveAspectRatio="xMidYMid meet" version="1.0"><defs><clipPath id="id1"><path d="M 368 416.726562 L 1072 416.726562 L 1072 906 L 368 906 Z M 368 416.726562 " clip-rule="nonzero"/></clipPath><clipPath id="id2"><path d="M 416 709 L 1024 709 L 1024 1023.476562 L 416 1023.476562 Z M 416 709 " clip-rule="nonzero"/></clipPath></defs><g clip-path="url(#id1)"><path fill="#b01030" d="M 720.019531 642.488281 C 720.019531 642.488281 606.148438 691.796875 522.179688 676.808594 C 515.464844 675.613281 508.96875 674.273438 502.6875 672.808594 C 524.367188 572.660156 613.410156 497.617188 720.019531 497.617188 C 826.625 497.617188 915.667969 572.660156 937.347656 672.808594 C 931.066406 674.273438 924.566406 675.613281 917.859375 676.808594 C 833.890625 691.796875 720.019531 642.488281 720.019531 642.488281 Z M 1042.652344 534.925781 C 1069.507812 585.671875 1046.734375 629.023438 988.589844 655.738281 C 947.125 654.796875 926.617188 604.394531 956.222656 574.78125 L 975.089844 555.910156 C 951.613281 519.496094 920.5625 488.433594 884.160156 464.949219 L 865.292969 483.824219 C 835.410156 513.714844 784.320312 492.542969 784.320312 450.273438 L 784.320312 423.566406 C 763.589844 419.09375 742.082031 416.710938 720.019531 416.710938 C 697.953125 416.710938 676.445312 419.09375 655.722656 423.566406 L 655.722656 450.273438 C 655.722656 492.542969 604.628906 513.714844 574.746094 483.824219 L 555.878906 464.949219 C 519.472656 488.433594 488.417969 519.496094 464.945312 555.910156 L 483.816406 574.78125 C 513.417969 604.394531 492.910156 654.796875 451.441406 655.738281 C 393.300781 629.023438 370.527344 585.671875 397.382812 534.925781 C 397.382812 534.925781 305.496094 633.832031 448.328125 704.785156 C 551.542969 756.0625 638.363281 744.03125 641.109375 811.351562 C 643.105469 860.308594 694.046875 864.972656 720.019531 905.273438 C 745.988281 864.972656 796.929688 860.308594 798.929688 811.351562 C 801.675781 744.03125 888.496094 756.0625 991.714844 704.785156 C 1134.542969 633.832031 1042.652344 534.925781 1042.652344 534.925781 " fill-opacity="1" fill-rule="nonzero"/></g><g clip-path="url(#id2)"><path fill="#ffffff" d="M 991.710938 727.84375 C 974.050781 736.617188 956.890625 743.507812 940.527344 749.289062 C 926.234375 858.367188 832.960938 942.582031 720.019531 942.582031 C 607.074219 942.582031 513.800781 858.367188 499.507812 749.289062 C 483.148438 743.507812 465.988281 736.617188 448.328125 727.84375 C 436.234375 721.835938 425.863281 715.625 416.9375 709.296875 C 416.808594 712.886719 416.722656 716.480469 416.722656 720.101562 C 416.722656 742.171875 419.101562 763.683594 423.578125 784.421875 L 450.277344 784.421875 C 492.535156 784.421875 513.695312 835.523438 483.816406 865.417969 L 464.945312 884.289062 C 488.417969 920.707031 519.472656 951.769531 555.875 975.25 L 574.746094 956.375 C 604.628906 926.488281 655.71875 947.652344 655.71875 989.925781 L 655.71875 1016.632812 C 676.445312 1021.105469 697.953125 1023.484375 720.019531 1023.484375 C 742.085938 1023.484375 763.589844 1021.105469 784.316406 1016.632812 L 784.316406 989.925781 C 784.316406 947.652344 835.410156 926.488281 865.292969 956.375 L 884.15625 975.25 C 920.5625 951.769531 951.613281 920.707031 975.089844 884.289062 L 956.21875 865.417969 C 926.339844 835.523438 947.5 784.421875 989.761719 784.421875 L 1016.460938 784.421875 C 1020.933594 763.683594 1023.308594 742.171875 1023.308594 720.101562 C 1023.308594 716.480469 1023.226562 712.886719 1023.097656 709.296875 C 1014.175781 715.625 1003.800781 721.835938 991.710938 727.84375 " fill-opacity="1" fill-rule="nonzero"/></g></svg>