<svg width="145" height="24" viewBox="0 0 145 24" fill="none" xmlns="http://www.w3.org/2000/svg">
<path d="M0.92 0.599998H13.72C15.8107 0.599998 17.3467 1.08 18.328 2.04C19.3093 2.97867 19.8 4.41867 19.8 6.36C19.8 7.64 19.5227 8.68533 18.968 9.496C18.4133 10.2853 17.7307 10.84 16.92 11.16C18.648 11.6293 19.8213 12.7813 20.44 14.616C20.6533 15.2773 20.76 16.0453 20.76 16.92C20.76 19.0107 20.2693 20.5467 19.288 21.528C18.3067 22.5093 16.7707 23 14.68 23H0.92V0.599998ZM15 15.96C15 14.68 14.36 14.04 13.08 14.04H6.68V18.52H13.08C14.36 18.52 15 17.88 15 16.6V15.96ZM14.04 7C14.04 5.72 13.4 5.08 12.12 5.08H6.68V9.56H12.12C13.4 9.56 14.04 8.92 14.04 7.64V7ZM37.0788 0.599998H42.8388V16.92C42.8388 19.16 42.3268 20.792 41.3028 21.816C40.3001 22.8187 38.6788 23.32 36.4388 23.32H29.0788C26.8388 23.32 25.2068 22.8187 24.1828 21.816C23.1801 20.792 22.6788 19.16 22.6788 16.92V0.599998H28.4388V16.92C28.4388 18.2 29.0788 18.84 30.3588 18.84H35.1588C36.4388 18.84 37.0788 18.2 37.0788 16.92V0.599998ZM51.4788 18.52H63.1588V23H45.7188V0.599998H51.4788V18.52ZM70.2062 18.52H81.8862V23H64.4462V0.599998H70.2062V18.52Z" fill="#B01030"/>
<path d="M83.1738 0.599998H96.6138C98.8538 0.599998 100.475 1.112 101.478 2.136C102.502 3.13867 103.014 4.76 103.014 7V10.2C103.014 12.44 102.502 14.072 101.478 15.096C100.475 16.0987 98.8538 16.6 96.6138 16.6H88.9338V23H83.1738V0.599998ZM97.2538 7C97.2538 5.72 96.6138 5.08 95.3338 5.08H88.9338V12.12H95.3338C96.6138 12.12 97.2538 11.48 97.2538 10.2V7ZM107.026 23H100.786L109.266 0.599998H115.666L124.146 23H117.906L116.466 19H108.466L107.026 23ZM109.906 14.84H115.026L112.466 7.32L109.906 14.84ZM137.265 0.599998C139.676 0.599998 141.5 1.22933 142.737 2.488C143.996 3.72533 144.625 5.54933 144.625 7.96V15.64C144.625 18.0507 143.996 19.8853 142.737 21.144C141.5 22.3813 139.676 23 137.265 23H124.785V0.599998H137.265ZM138.865 7.96C138.865 6.04 137.905 5.08 135.985 5.08H130.545V18.52H135.985C137.905 18.52 138.865 17.56 138.865 15.64V7.96Z" fill="white"/>
</svg>
